<svg class="svg-icon" style="width: 1em; height: 1em;vertical-align: middle;fill: currentColor;overflow: hidden;" viewBox="0 0 1024 1024" version="1.1" xmlns="http://www.w3.org/2000/svg"><path d="M669.866667 353.28c8.533333 8.533333 12.8 18.773333 12.8 30.72s-4.266667 21.896533-12.8 29.866667c-7.970133 8.533333-17.92 12.8-29.866667 12.8s-22.186667-4.266667-30.72-12.8c-7.9872-7.970133-11.946667-17.92-11.946667-29.866667s3.959467-22.186667 11.946667-30.72c8.533333-7.970133 18.773333-11.946667 30.72-11.946667s21.896533 3.976533 29.866667 11.946667z m-256 0c8.533333 8.533333 12.8 18.773333 12.8 30.72s-4.266667 21.896533-12.8 29.866667c-7.970133 8.533333-17.92 12.8-29.866667 12.8s-22.186667-4.266667-30.72-12.8c-7.970133-7.970133-11.946667-17.92-11.946667-29.866667s3.976533-22.186667 11.946667-30.72c8.533333-7.970133 18.773333-11.946667 30.72-11.946667s21.896533 3.976533 29.866667 11.946667z"  /><path d="M512 955.733333c-121.890133 0-227.584-43.8784-314.146133-130.440533C111.872 739.293867 68.266667 633.9072 68.266667 512c0-121.873067 43.588267-227.549867 129.536-314.112C284.450133 111.854933 390.126933 68.266667 512 68.266667c121.9072 0 227.293867 43.605333 313.2928 129.5872C911.854933 284.416 955.733333 390.109867 955.733333 512c0 121.924267-43.895467 227.328-130.474666 313.326933C739.328 911.837867 633.924267 955.733333 512 955.733333z m0-853.333333c-112.5376 0-210.1248 40.2432-290.065067 119.620267C142.6432 301.8752 102.4 399.4624 102.4 512c0 112.520533 40.226133 209.800533 119.586133 289.160533C301.909333 881.083733 399.496533 921.6 512 921.6c112.4864 0 209.7664-40.4992 289.1264-120.405333C881.1008 721.7664 921.6 624.4864 921.6 512c0-112.503467-40.516267-210.090667-120.439467-290.013867C721.800533 142.626133 624.520533 102.4 512 102.4z m128 341.333333a58.606933 58.606933 0 0 1-42.786133-17.800533C585.966933 414.72 580.266667 400.605867 580.266667 384c0-16.366933 5.563733-30.634667 16.554666-42.376533 12.561067-11.793067 26.811733-17.3568 43.178667-17.3568 16.5888 0 30.702933 5.700267 41.9328 16.964266A58.504533 58.504533 0 0 1 699.733333 384c0 16.571733-6.2976 31.214933-18.210133 42.3424-10.308267 11.093333-24.951467 17.390933-41.5232 17.390933z m0-85.333333c-7.6288 0-13.704533 2.338133-19.063467 7.355733-4.1984 4.539733-6.536533 10.5984-6.536533 18.244267 0 7.406933 2.2016 13.056 6.929067 17.783467 5.341867 5.341867 11.264 7.816533 18.670933 7.816533 7.2704 0 12.629333-2.269867 17.390933-7.389867 5.922133-5.5808 8.209067-10.939733 8.209067-18.210133 0-7.406933-2.491733-13.329067-7.799467-18.653867-4.727467-4.744533-10.3936-6.946133-17.800533-6.946133z m-256 85.333333a58.5728 58.5728 0 0 1-42.786133-17.800533C329.966933 414.702933 324.266667 400.5888 324.266667 384c0-16.366933 5.563733-30.6176 16.554666-42.359467 12.561067-11.810133 26.811733-17.373867 43.178667-17.373866 16.5888 0 30.702933 5.700267 41.949867 16.964266A58.555733 58.555733 0 0 1 443.733333 384c0 16.571733-6.2976 31.214933-18.210133 42.3424-10.308267 11.093333-24.951467 17.390933-41.5232 17.390933z m0-85.333333c-7.645867 0-13.704533 2.338133-19.063467 7.355733-4.1984 4.539733-6.536533 10.5984-6.536533 18.244267 0 7.406933 2.2016 13.056 6.946133 17.783467 5.3248 5.341867 11.246933 7.816533 18.653867 7.816533 7.2704 0 12.629333-2.269867 17.390933-7.389867 5.9392-5.5808 8.209067-10.939733 8.209067-18.210133a24.917333 24.917333 0 0 0-7.799467-18.653867c-4.744533-4.744533-10.3936-6.946133-17.800533-6.946133z"  /><path d="M682.666667 699.733333H341.333333a17.066667 17.066667 0 1 1 0-34.133333h341.333334a17.066667 17.066667 0 1 1 0 34.133333z"  /></svg>